<svg width="40" height="40" viewBox="0 0 40 40" fill="none" xmlns="http://www.w3.org/2000/svg">
<g id="ic:outline-email">
<path id="Vector" d="M33.599 10.4241L35.0774 9.50008H33.334H6.66732H4.92392L6.40232 10.4241L19.7357 18.7574L20.0007 18.923L20.2657 18.7574L33.599 10.4241ZM33.334 30.5001H33.834V30.0001V13.3334V12.4313L33.069 12.9094L20.0007 21.0771L6.93232 12.9094L6.16732 12.4313V13.3334V30.0001V30.5001H6.66732H33.334ZM33.334 7.16675C34.8912 7.16675 36.1673 8.44289 36.1673 10.0001V30.0001C36.1673 31.5573 34.8912 32.8334 33.334 32.8334H6.66732C5.11013 32.8334 3.83398 31.5573 3.83398 30.0001V10.0001C3.83398 8.44289 5.11013 7.16675 6.66732 7.16675H33.334Z" fill="#EC5C2E" stroke="#EC5C2E"/>
</g>
</svg>
