<svg width="40" height="40" viewBox="0 0 40 40" fill="none" xmlns="http://www.w3.org/2000/svg">
<g id="mdi:cards-heart">
<path id="Vector" d="M17.9206 33.0136L17.9199 33.0129C13.6184 29.1124 10.0881 25.9066 7.62737 22.8961C5.17213 19.8923 3.83398 17.144 3.83398 14.1667C3.83398 9.2934 7.64286 5.5 12.5007 5.5C15.2495 5.5 17.896 6.78223 19.6212 8.79231L20.0007 9.23438L20.3801 8.79231C22.1053 6.78223 24.7518 5.5 27.5007 5.5C32.3584 5.5 36.1673 9.2934 36.1673 14.1667C36.1673 17.144 34.8292 19.8923 32.3739 22.8961C29.9132 25.9066 26.3829 29.1124 22.0814 33.0129L22.0807 33.0136L20.0007 34.9072L17.9206 33.0136Z" fill="white" stroke="white"/>
</g>
</svg>
