<svg width="15" height="14" viewBox="0 0 15 14" fill="none" xmlns="http://www.w3.org/2000/svg">
<g id="star 4" clip-path="url(#clip0_5800_116)">
<path id="Vector" d="M13.5183 4.83195L9.6463 4.49595L8.1343 0.935951C7.8623 0.287951 6.9343 0.287951 6.6623 0.935951L5.1503 4.50395L1.2863 4.83195C0.5823 4.88795 0.2943 5.76795 0.8303 6.23195L3.7663 8.77595L2.8863 12.552C2.7263 13.24 3.4703 13.784 4.0783 13.416L7.3983 11.416L10.7183 13.424C11.3263 13.792 12.0703 13.248 11.9103 12.56L11.0303 8.77595L13.9663 6.23195C14.5023 5.76795 14.2223 4.88795 13.5183 4.83195ZM7.3983 9.91995L4.3903 11.736L5.1903 8.31195L2.5343 6.00795L6.0383 5.70395L7.3983 2.47995L8.7663 5.71195L12.2703 6.01595L9.6143 8.31995L10.4143 11.744L7.3983 9.91995Z" fill="#737373"/>
</g>
<defs>
<clipPath id="clip0_5800_116">
<rect width="14.4" height="13.8" fill="white" transform="translate(0.199219)"/>
</clipPath>
</defs>
</svg>
